<mxfile host="app.diagrams.net" modified="2023-01-29T16:54:42.443Z" agent="5.0 (Windows NT 10.0; Win64; x64) AppleWebKit/537.36 (KHTML, like Gecko) Chrome/109.0.0.0 Safari/537.36" etag="6ig1nHiEb-07SbqmzDB-" version="20.8.13" type="github">
  <diagram name="Page-1" id="uTwbPTfAmrfhqU-y623a">
    <mxGraphModel dx="1195" dy="1830" grid="0" gridSize="10" guides="1" tooltips="1" connect="1" arrows="1" fold="1" page="0" pageScale="1" pageWidth="827" pageHeight="1169" math="0" shadow="0">
      <root>
        <mxCell id="0" />
        <mxCell id="1" parent="0" />
        <mxCell id="RunO3F0_F8zgoCKm4RE9-4" value="Tracker" style="rounded=0;whiteSpace=wrap;html=1;" vertex="1" parent="1">
          <mxGeometry x="810" y="-1136" width="251.75" height="30" as="geometry" />
        </mxCell>
        <mxCell id="RunO3F0_F8zgoCKm4RE9-7" value="Recommendation" style="rounded=0;whiteSpace=wrap;html=1;" vertex="1" parent="1">
          <mxGeometry x="430" y="-1120" width="220" height="30" as="geometry" />
        </mxCell>
        <mxCell id="RunO3F0_F8zgoCKm4RE9-9" value="Goals" style="rounded=0;whiteSpace=wrap;html=1;" vertex="1" parent="1">
          <mxGeometry x="20.25" y="-1149.75" width="258" height="30" as="geometry" />
        </mxCell>
        <mxCell id="RunO3F0_F8zgoCKm4RE9-13" value="" style="triangle;whiteSpace=wrap;html=1;fontSize=12;fillColor=#000000;flipV=1;flipH=1;" vertex="1" parent="1">
          <mxGeometry x="721.5" y="-1074" width="10" height="20" as="geometry" />
        </mxCell>
        <mxCell id="RunO3F0_F8zgoCKm4RE9-14" value="" style="triangle;whiteSpace=wrap;html=1;fontSize=12;fillColor=#000000;" vertex="1" parent="1">
          <mxGeometry x="346.5" y="-1076" width="10" height="20" as="geometry" />
        </mxCell>
        <mxCell id="RunO3F0_F8zgoCKm4RE9-15" value="&lt;span style=&quot;background-color: rgb(248, 249, 250);&quot;&gt;Provides progress of current goals&lt;/span&gt;" style="text;html=1;strokeColor=none;fillColor=none;align=center;verticalAlign=middle;whiteSpace=wrap;rounded=0;fontSize=12;" vertex="1" parent="1">
          <mxGeometry x="300" y="-1112" width="101.5" height="30" as="geometry" />
        </mxCell>
        <mxCell id="RunO3F0_F8zgoCKm4RE9-16" value="&lt;span style=&quot;background-color: rgb(248, 249, 250);&quot;&gt;Provide exercise types / food names&lt;/span&gt;" style="text;html=1;strokeColor=none;fillColor=none;align=center;verticalAlign=middle;whiteSpace=wrap;rounded=0;fontSize=12;" vertex="1" parent="1">
          <mxGeometry x="670" y="-1106" width="113" height="30" as="geometry" />
        </mxCell>
        <mxCell id="RunO3F0_F8zgoCKm4RE9-17" value="- items: ArrayList&amp;lt;Item&amp;gt;&lt;br&gt;- currentTracker:&amp;nbsp;&lt;span style=&quot;text-align: center;&quot;&gt;TrackerType&lt;/span&gt;" style="rounded=0;whiteSpace=wrap;html=1;align=left;spacingLeft=2;" vertex="1" parent="1">
          <mxGeometry x="810" y="-1106" width="251.75" height="37" as="geometry" />
        </mxCell>
        <mxCell id="RunO3F0_F8zgoCKm4RE9-18" value="- addItem(item: Item): void&lt;br&gt;- updateItem(item: Item, newItem: Item): void&lt;br&gt;- removeItem(item: Item): void&lt;br&gt;- setCurrentTracker(): void&lt;br&gt;- synchroniseExercises(): void" style="rounded=0;whiteSpace=wrap;html=1;align=left;spacingLeft=2;" vertex="1" parent="1">
          <mxGeometry x="810" y="-1069" width="251.75" height="76" as="geometry" />
        </mxCell>
        <mxCell id="RunO3F0_F8zgoCKm4RE9-19" value="- recommendations: ArrayList&amp;lt;String&amp;gt;&lt;br&gt;- suggestedArticles: ArrayList&amp;lt;String&amp;gt;" style="rounded=0;whiteSpace=wrap;html=1;align=left;spacingLeft=2;" vertex="1" parent="1">
          <mxGeometry x="430" y="-1090.5" width="220" height="40" as="geometry" />
        </mxCell>
        <mxCell id="RunO3F0_F8zgoCKm4RE9-28" style="edgeStyle=orthogonalEdgeStyle;rounded=0;orthogonalLoop=1;jettySize=auto;html=1;exitX=1;exitY=0;exitDx=0;exitDy=0;entryX=0;entryY=0.25;entryDx=0;entryDy=0;startArrow=open;startFill=0;endArrow=none;endFill=0;endSize=15;startSize=15;" edge="1" parent="1" source="RunO3F0_F8zgoCKm4RE9-20" target="RunO3F0_F8zgoCKm4RE9-18">
          <mxGeometry relative="1" as="geometry">
            <Array as="points">
              <mxPoint x="734" y="-1050" />
              <mxPoint x="818" y="-1051" />
            </Array>
          </mxGeometry>
        </mxCell>
        <mxCell id="RunO3F0_F8zgoCKm4RE9-20" value="- generateReccomendations(): void&lt;br&gt;- pickSuggestedArticle(): void" style="rounded=0;whiteSpace=wrap;html=1;align=left;spacingLeft=2;" vertex="1" parent="1">
          <mxGeometry x="430" y="-1050.5" width="220" height="40" as="geometry" />
        </mxCell>
        <mxCell id="RunO3F0_F8zgoCKm4RE9-26" style="edgeStyle=orthogonalEdgeStyle;rounded=0;orthogonalLoop=1;jettySize=auto;html=1;entryX=0;entryY=0;entryDx=0;entryDy=0;endArrow=open;endFill=0;startSize=15;endSize=15;" edge="1" parent="1" target="RunO3F0_F8zgoCKm4RE9-20">
          <mxGeometry relative="1" as="geometry">
            <mxPoint x="280" y="-1050" as="sourcePoint" />
            <Array as="points">
              <mxPoint x="268" y="-1050" />
            </Array>
          </mxGeometry>
        </mxCell>
        <mxCell id="RunO3F0_F8zgoCKm4RE9-23" value="- activeWeekGoals: ArrayList&amp;lt;Goal&amp;gt;&lt;br&gt;- activeMonthGoals: ArrayList&amp;lt;Goal&amp;gt;&lt;br&gt;- inactiveGoals: ArrayList&amp;lt;Goal&amp;gt;&lt;br&gt;- completedGoals: ArrayList&amp;lt;Goal&amp;gt;" style="rounded=0;whiteSpace=wrap;html=1;align=left;spacingLeft=2;" vertex="1" parent="1">
          <mxGeometry x="20.25" y="-1119.75" width="258" height="71.5" as="geometry" />
        </mxCell>
        <mxCell id="RunO3F0_F8zgoCKm4RE9-24" value="- generateNewGoal(trackerData: Tracker): void&lt;br&gt;- refreshInactiveGoals(): void&lt;br&gt;- checkGoalProgress(goal: Goal): int&lt;br&gt;- markGoalAsComplete(): void" style="rounded=0;whiteSpace=wrap;html=1;align=left;spacingLeft=2;" vertex="1" parent="1">
          <mxGeometry x="20" y="-1048.25" width="258.25" height="70" as="geometry" />
        </mxCell>
        <mxCell id="RunO3F0_F8zgoCKm4RE9-32" value="Tracker" style="rounded=0;whiteSpace=wrap;html=1;" vertex="1" parent="1">
          <mxGeometry x="809.12" y="-733.25" width="251.75" height="30" as="geometry" />
        </mxCell>
        <mxCell id="RunO3F0_F8zgoCKm4RE9-33" value="RecommendationAdapter" style="rounded=0;whiteSpace=wrap;html=1;" vertex="1" parent="1">
          <mxGeometry x="429.12" y="-716.25" width="220" height="30" as="geometry" />
        </mxCell>
        <mxCell id="RunO3F0_F8zgoCKm4RE9-34" value="Goals" style="rounded=0;whiteSpace=wrap;html=1;" vertex="1" parent="1">
          <mxGeometry x="19.37" y="-748" width="258" height="30" as="geometry" />
        </mxCell>
        <mxCell id="RunO3F0_F8zgoCKm4RE9-39" value="- items: ArrayList&amp;lt;Item&amp;gt;&lt;br&gt;- currentTracker:&amp;nbsp;&lt;span style=&quot;text-align: center;&quot;&gt;TrackerType&lt;/span&gt;" style="rounded=0;whiteSpace=wrap;html=1;align=left;spacingLeft=2;" vertex="1" parent="1">
          <mxGeometry x="809.12" y="-703.25" width="251.75" height="37" as="geometry" />
        </mxCell>
        <mxCell id="RunO3F0_F8zgoCKm4RE9-40" value="- addItem(item: Item): void&lt;br&gt;- updateItem(item: Item, newItem: Item): void&lt;br&gt;- removeItem(item: Item): void&lt;br&gt;- setCurrentTracker(): void&lt;br&gt;- synchroniseExercises(): void" style="rounded=0;whiteSpace=wrap;html=1;align=left;spacingLeft=2;" vertex="1" parent="1">
          <mxGeometry x="809.12" y="-666.25" width="251.75" height="76" as="geometry" />
        </mxCell>
        <mxCell id="RunO3F0_F8zgoCKm4RE9-41" value="- tracker: Tracker&lt;br&gt;- goals: Goals" style="rounded=0;whiteSpace=wrap;html=1;align=left;spacingLeft=2;" vertex="1" parent="1">
          <mxGeometry x="429.12" y="-686.75" width="220" height="40" as="geometry" />
        </mxCell>
        <mxCell id="RunO3F0_F8zgoCKm4RE9-42" style="edgeStyle=orthogonalEdgeStyle;rounded=0;orthogonalLoop=1;jettySize=auto;html=1;exitX=1;exitY=0;exitDx=0;exitDy=0;startArrow=none;startFill=0;endArrow=open;endFill=0;endSize=15;startSize=15;" edge="1" parent="1" source="RunO3F0_F8zgoCKm4RE9-43">
          <mxGeometry relative="1" as="geometry">
            <Array as="points">
              <mxPoint x="674" y="-647" />
              <mxPoint x="809" y="-646" />
            </Array>
            <mxPoint x="809" y="-646" as="targetPoint" />
          </mxGeometry>
        </mxCell>
        <mxCell id="RunO3F0_F8zgoCKm4RE9-43" value="- generateReccomendations(): void" style="rounded=0;whiteSpace=wrap;html=1;align=left;spacingLeft=2;" vertex="1" parent="1">
          <mxGeometry x="429.12" y="-646.75" width="220" height="40" as="geometry" />
        </mxCell>
        <mxCell id="RunO3F0_F8zgoCKm4RE9-44" style="edgeStyle=orthogonalEdgeStyle;rounded=0;orthogonalLoop=1;jettySize=auto;html=1;entryX=0;entryY=0;entryDx=0;entryDy=0;endArrow=none;endFill=0;startSize=15;endSize=15;startArrow=open;startFill=0;exitX=1;exitY=1;exitDx=0;exitDy=0;" edge="1" parent="1" target="RunO3F0_F8zgoCKm4RE9-43" source="RunO3F0_F8zgoCKm4RE9-45">
          <mxGeometry relative="1" as="geometry">
            <mxPoint x="279.12" y="-648.25" as="sourcePoint" />
            <Array as="points">
              <mxPoint x="290" y="-647" />
              <mxPoint x="429" y="-646" />
            </Array>
          </mxGeometry>
        </mxCell>
        <mxCell id="RunO3F0_F8zgoCKm4RE9-45" value="- activeWeekGoals: ArrayList&amp;lt;Goal&amp;gt;&lt;br&gt;- activeMonthGoals: ArrayList&amp;lt;Goal&amp;gt;&lt;br&gt;- inactiveGoals: ArrayList&amp;lt;Goal&amp;gt;&lt;br&gt;- completedGoals: ArrayList&amp;lt;Goal&amp;gt;" style="rounded=0;whiteSpace=wrap;html=1;align=left;spacingLeft=2;" vertex="1" parent="1">
          <mxGeometry x="19.37" y="-718" width="258" height="71.5" as="geometry" />
        </mxCell>
        <mxCell id="RunO3F0_F8zgoCKm4RE9-46" value="- generateNewGoal(trackerData: Tracker): void&lt;br&gt;- refreshInactiveGoals(): void&lt;br&gt;- checkGoalProgress(goal: Goal): int&lt;br&gt;- markGoalAsComplete(): void" style="rounded=0;whiteSpace=wrap;html=1;align=left;spacingLeft=2;" vertex="1" parent="1">
          <mxGeometry x="19.12" y="-646.5" width="258.25" height="70" as="geometry" />
        </mxCell>
        <mxCell id="RunO3F0_F8zgoCKm4RE9-47" value="Recommendation" style="rounded=0;whiteSpace=wrap;html=1;" vertex="1" parent="1">
          <mxGeometry x="430" y="-913" width="220" height="30" as="geometry" />
        </mxCell>
        <mxCell id="RunO3F0_F8zgoCKm4RE9-48" value="- recommendations: ArrayList&amp;lt;String&amp;gt;&lt;br&gt;- suggestedArticles: ArrayList&amp;lt;String&amp;gt;" style="rounded=0;whiteSpace=wrap;html=1;align=left;spacingLeft=2;" vertex="1" parent="1">
          <mxGeometry x="430" y="-883.5" width="220" height="40" as="geometry" />
        </mxCell>
        <mxCell id="RunO3F0_F8zgoCKm4RE9-50" style="edgeStyle=orthogonalEdgeStyle;rounded=0;orthogonalLoop=1;jettySize=auto;html=1;entryX=0.5;entryY=0;entryDx=0;entryDy=0;startArrow=block;startFill=0;endArrow=none;endFill=0;startSize=15;endSize=15;" edge="1" parent="1" source="RunO3F0_F8zgoCKm4RE9-49" target="RunO3F0_F8zgoCKm4RE9-33">
          <mxGeometry relative="1" as="geometry" />
        </mxCell>
        <mxCell id="RunO3F0_F8zgoCKm4RE9-49" value="- generateReccomendations(): void&lt;br&gt;- pickSuggestedArticle(): void" style="rounded=0;whiteSpace=wrap;html=1;align=left;spacingLeft=2;" vertex="1" parent="1">
          <mxGeometry x="430" y="-843.5" width="220" height="40" as="geometry" />
        </mxCell>
      </root>
    </mxGraphModel>
  </diagram>
</mxfile>
